<svg xmlns="http://www.w3.org/2000/svg" class="h-6 w-6" fill= "#6b7280" width="20" height="20" viewBox="0 0 20 20"><path fill-rule="evenodd" clip-rule="evenodd" d="M16.8361 1.61696L9.52353 18.3315L9.60186 18.5106C9.7218 18.5085 9.84223 18.4773 9.95307 18.4156L10.0423 18.3659L16.4707 14.7848C16.6812 14.6676 16.8275 14.4556 16.8669 14.2108L18.7331 2.6097C18.7356 2.59371 18.7377 2.57765 18.7394 2.56152L18.7398 2.55794C18.744 2.52571 18.7728 2.30205 18.7122 2.06645C18.6309 1.75037 18.4091 1.45455 18.0341 1.31707C17.7366 1.208 17.4507 1.24467 17.232 1.3364C17.1044 1.38994 16.9577 1.48069 16.8361 1.61696ZM12.7645 7.69656L8.81763 16.7181L3.72566 5.07926L9.11011 3.12706C9.44101 3.00709 9.80816 3.13403 10.0039 3.43608L12.7645 7.69656ZM2.77063 6.12327L6.0406 13.5975L1.87961 18.7373C1.86503 18.7553 1.8497 18.7726 1.83366 18.7892C1.72798 18.8986 1.57493 19.0059 1.38781 19.068C1.18578 19.135 0.908711 19.1587 0.621827 19.0238C0.0667883 18.7627 -0.0341362 18.2015 0.00875448 17.8908C0.0122964 17.8651 0.0170348 17.8396 0.0229529 17.8145L2.77063 6.12327Z"/></svg>